<mxfile host="Electron" modified="2023-06-29T08:47:54.382Z" agent="Mozilla/5.0 (Windows NT 10.0; Win64; x64) AppleWebKit/537.36 (KHTML, like Gecko) draw.io/21.5.0 Chrome/112.0.5615.204 Electron/24.5.1 Safari/537.36" etag="WVeP-ZKNDBokWmg9lv3E" version="21.5.0" type="device">
  <diagram id="C5RBs43oDa-KdzZeNtuy" name="Page-1">
    <mxGraphModel dx="1247" dy="730" grid="1" gridSize="10" guides="1" tooltips="1" connect="1" arrows="1" fold="1" page="1" pageScale="1" pageWidth="827" pageHeight="1169" math="0" shadow="0">
      <root>
        <mxCell id="WIyWlLk6GJQsqaUBKTNV-0" />
        <mxCell id="WIyWlLk6GJQsqaUBKTNV-1" parent="WIyWlLk6GJQsqaUBKTNV-0" />
        <mxCell id="zkfFHV4jXpPFQw0GAbJ--0" value="User" style="swimlane;fontStyle=2;align=center;verticalAlign=top;childLayout=stackLayout;horizontal=1;startSize=26;horizontalStack=0;resizeParent=1;resizeLast=0;collapsible=1;marginBottom=0;rounded=0;shadow=0;strokeWidth=1;" parent="WIyWlLk6GJQsqaUBKTNV-1" vertex="1">
          <mxGeometry x="200" y="120" width="160" height="90" as="geometry">
            <mxRectangle x="230" y="140" width="160" height="26" as="alternateBounds" />
          </mxGeometry>
        </mxCell>
        <mxCell id="zkfFHV4jXpPFQw0GAbJ--1" value="- name : String" style="text;align=left;verticalAlign=top;spacingLeft=4;spacingRight=4;overflow=hidden;rotatable=0;points=[[0,0.5],[1,0.5]];portConstraint=eastwest;" parent="zkfFHV4jXpPFQw0GAbJ--0" vertex="1">
          <mxGeometry y="26" width="160" height="26" as="geometry" />
        </mxCell>
        <mxCell id="zkfFHV4jXpPFQw0GAbJ--2" value="- password: String" style="text;align=left;verticalAlign=top;spacingLeft=4;spacingRight=4;overflow=hidden;rotatable=0;points=[[0,0.5],[1,0.5]];portConstraint=eastwest;rounded=0;shadow=0;html=0;" parent="zkfFHV4jXpPFQw0GAbJ--0" vertex="1">
          <mxGeometry y="52" width="160" height="26" as="geometry" />
        </mxCell>
        <mxCell id="zkfFHV4jXpPFQw0GAbJ--4" value="" style="line;html=1;strokeWidth=1;align=left;verticalAlign=middle;spacingTop=-1;spacingLeft=3;spacingRight=3;rotatable=0;labelPosition=right;points=[];portConstraint=eastwest;" parent="zkfFHV4jXpPFQw0GAbJ--0" vertex="1">
          <mxGeometry y="78" width="160" height="8" as="geometry" />
        </mxCell>
        <mxCell id="gm1jHRFKDk8UkBT7VS1y-0" value="Patient" style="swimlane;fontStyle=2;align=center;verticalAlign=top;childLayout=stackLayout;horizontal=1;startSize=26;horizontalStack=0;resizeParent=1;resizeLast=0;collapsible=1;marginBottom=0;rounded=0;shadow=0;strokeWidth=1;" vertex="1" parent="WIyWlLk6GJQsqaUBKTNV-1">
          <mxGeometry y="320" width="160" height="138" as="geometry">
            <mxRectangle x="230" y="140" width="160" height="26" as="alternateBounds" />
          </mxGeometry>
        </mxCell>
        <mxCell id="gm1jHRFKDk8UkBT7VS1y-1" value="- nss : String" style="text;align=left;verticalAlign=top;spacingLeft=4;spacingRight=4;overflow=hidden;rotatable=0;points=[[0,0.5],[1,0.5]];portConstraint=eastwest;" vertex="1" parent="gm1jHRFKDk8UkBT7VS1y-0">
          <mxGeometry y="26" width="160" height="26" as="geometry" />
        </mxCell>
        <mxCell id="gm1jHRFKDk8UkBT7VS1y-2" value="- age : int" style="text;align=left;verticalAlign=top;spacingLeft=4;spacingRight=4;overflow=hidden;rotatable=0;points=[[0,0.5],[1,0.5]];portConstraint=eastwest;rounded=0;shadow=0;html=0;" vertex="1" parent="gm1jHRFKDk8UkBT7VS1y-0">
          <mxGeometry y="52" width="160" height="26" as="geometry" />
        </mxCell>
        <mxCell id="gm1jHRFKDk8UkBT7VS1y-4" value="- weight: int" style="text;align=left;verticalAlign=top;spacingLeft=4;spacingRight=4;overflow=hidden;rotatable=0;points=[[0,0.5],[1,0.5]];portConstraint=eastwest;rounded=0;shadow=0;html=0;" vertex="1" parent="gm1jHRFKDk8UkBT7VS1y-0">
          <mxGeometry y="78" width="160" height="26" as="geometry" />
        </mxCell>
        <mxCell id="gm1jHRFKDk8UkBT7VS1y-5" value="- specialMentions: String" style="text;align=left;verticalAlign=top;spacingLeft=4;spacingRight=4;overflow=hidden;rotatable=0;points=[[0,0.5],[1,0.5]];portConstraint=eastwest;rounded=0;shadow=0;html=0;" vertex="1" parent="gm1jHRFKDk8UkBT7VS1y-0">
          <mxGeometry y="104" width="160" height="26" as="geometry" />
        </mxCell>
        <mxCell id="gm1jHRFKDk8UkBT7VS1y-3" value="" style="line;html=1;strokeWidth=1;align=left;verticalAlign=middle;spacingTop=-1;spacingLeft=3;spacingRight=3;rotatable=0;labelPosition=right;points=[];portConstraint=eastwest;" vertex="1" parent="gm1jHRFKDk8UkBT7VS1y-0">
          <mxGeometry y="130" width="160" height="8" as="geometry" />
        </mxCell>
        <mxCell id="gm1jHRFKDk8UkBT7VS1y-7" value="Doctor" style="swimlane;fontStyle=2;align=center;verticalAlign=top;childLayout=stackLayout;horizontal=1;startSize=26;horizontalStack=0;resizeParent=1;resizeLast=0;collapsible=1;marginBottom=0;rounded=0;shadow=0;strokeWidth=1;" vertex="1" parent="WIyWlLk6GJQsqaUBKTNV-1">
          <mxGeometry x="200" y="320" width="160" height="70" as="geometry">
            <mxRectangle x="230" y="140" width="160" height="26" as="alternateBounds" />
          </mxGeometry>
        </mxCell>
        <mxCell id="gm1jHRFKDk8UkBT7VS1y-8" value="- rpps: String" style="text;align=left;verticalAlign=top;spacingLeft=4;spacingRight=4;overflow=hidden;rotatable=0;points=[[0,0.5],[1,0.5]];portConstraint=eastwest;" vertex="1" parent="gm1jHRFKDk8UkBT7VS1y-7">
          <mxGeometry y="26" width="160" height="26" as="geometry" />
        </mxCell>
        <mxCell id="gm1jHRFKDk8UkBT7VS1y-10" value="" style="line;html=1;strokeWidth=1;align=left;verticalAlign=middle;spacingTop=-1;spacingLeft=3;spacingRight=3;rotatable=0;labelPosition=right;points=[];portConstraint=eastwest;" vertex="1" parent="gm1jHRFKDk8UkBT7VS1y-7">
          <mxGeometry y="52" width="160" height="8" as="geometry" />
        </mxCell>
        <mxCell id="gm1jHRFKDk8UkBT7VS1y-12" value="Pharmacy" style="swimlane;fontStyle=2;align=center;verticalAlign=top;childLayout=stackLayout;horizontal=1;startSize=26;horizontalStack=0;resizeParent=1;resizeLast=0;collapsible=1;marginBottom=0;rounded=0;shadow=0;strokeWidth=1;" vertex="1" parent="WIyWlLk6GJQsqaUBKTNV-1">
          <mxGeometry x="440" y="320" width="160" height="86" as="geometry">
            <mxRectangle x="230" y="140" width="160" height="26" as="alternateBounds" />
          </mxGeometry>
        </mxCell>
        <mxCell id="gm1jHRFKDk8UkBT7VS1y-13" value="- id: String" style="text;align=left;verticalAlign=top;spacingLeft=4;spacingRight=4;overflow=hidden;rotatable=0;points=[[0,0.5],[1,0.5]];portConstraint=eastwest;" vertex="1" parent="gm1jHRFKDk8UkBT7VS1y-12">
          <mxGeometry y="26" width="160" height="26" as="geometry" />
        </mxCell>
        <mxCell id="gm1jHRFKDk8UkBT7VS1y-15" value="- adress: String" style="text;align=left;verticalAlign=top;spacingLeft=4;spacingRight=4;overflow=hidden;rotatable=0;points=[[0,0.5],[1,0.5]];portConstraint=eastwest;" vertex="1" parent="gm1jHRFKDk8UkBT7VS1y-12">
          <mxGeometry y="52" width="160" height="26" as="geometry" />
        </mxCell>
        <mxCell id="gm1jHRFKDk8UkBT7VS1y-14" value="" style="line;html=1;strokeWidth=1;align=left;verticalAlign=middle;spacingTop=-1;spacingLeft=3;spacingRight=3;rotatable=0;labelPosition=right;points=[];portConstraint=eastwest;" vertex="1" parent="gm1jHRFKDk8UkBT7VS1y-12">
          <mxGeometry y="78" width="160" height="8" as="geometry" />
        </mxCell>
        <mxCell id="gm1jHRFKDk8UkBT7VS1y-16" value="Prescription" style="swimlane;fontStyle=2;align=center;verticalAlign=top;childLayout=stackLayout;horizontal=1;startSize=26;horizontalStack=0;resizeParent=1;resizeLast=0;collapsible=1;marginBottom=0;rounded=0;shadow=0;strokeWidth=1;" vertex="1" parent="WIyWlLk6GJQsqaUBKTNV-1">
          <mxGeometry y="560" width="160" height="242" as="geometry">
            <mxRectangle x="230" y="140" width="160" height="26" as="alternateBounds" />
          </mxGeometry>
        </mxCell>
        <mxCell id="gm1jHRFKDk8UkBT7VS1y-18" value="- id : int" style="text;align=left;verticalAlign=top;spacingLeft=4;spacingRight=4;overflow=hidden;rotatable=0;points=[[0,0.5],[1,0.5]];portConstraint=eastwest;rounded=0;shadow=0;html=0;" vertex="1" parent="gm1jHRFKDk8UkBT7VS1y-16">
          <mxGeometry y="26" width="160" height="26" as="geometry" />
        </mxCell>
        <mxCell id="gm1jHRFKDk8UkBT7VS1y-17" value="- medicines: String" style="text;align=left;verticalAlign=top;spacingLeft=4;spacingRight=4;overflow=hidden;rotatable=0;points=[[0,0.5],[1,0.5]];portConstraint=eastwest;" vertex="1" parent="gm1jHRFKDk8UkBT7VS1y-16">
          <mxGeometry y="52" width="160" height="26" as="geometry" />
        </mxCell>
        <mxCell id="gm1jHRFKDk8UkBT7VS1y-19" value="- date : localDate" style="text;align=left;verticalAlign=top;spacingLeft=4;spacingRight=4;overflow=hidden;rotatable=0;points=[[0,0.5],[1,0.5]];portConstraint=eastwest;rounded=0;shadow=0;html=0;" vertex="1" parent="gm1jHRFKDk8UkBT7VS1y-16">
          <mxGeometry y="78" width="160" height="26" as="geometry" />
        </mxCell>
        <mxCell id="gm1jHRFKDk8UkBT7VS1y-20" value="- patient: Patient" style="text;align=left;verticalAlign=top;spacingLeft=4;spacingRight=4;overflow=hidden;rotatable=0;points=[[0,0.5],[1,0.5]];portConstraint=eastwest;rounded=0;shadow=0;html=0;" vertex="1" parent="gm1jHRFKDk8UkBT7VS1y-16">
          <mxGeometry y="104" width="160" height="26" as="geometry" />
        </mxCell>
        <mxCell id="gm1jHRFKDk8UkBT7VS1y-22" value="- doctor : Doctor" style="text;align=left;verticalAlign=top;spacingLeft=4;spacingRight=4;overflow=hidden;rotatable=0;points=[[0,0.5],[1,0.5]];portConstraint=eastwest;rounded=0;shadow=0;html=0;" vertex="1" parent="gm1jHRFKDk8UkBT7VS1y-16">
          <mxGeometry y="130" width="160" height="26" as="geometry" />
        </mxCell>
        <mxCell id="gm1jHRFKDk8UkBT7VS1y-23" value="- pharmacy : Pharmacy" style="text;align=left;verticalAlign=top;spacingLeft=4;spacingRight=4;overflow=hidden;rotatable=0;points=[[0,0.5],[1,0.5]];portConstraint=eastwest;rounded=0;shadow=0;html=0;" vertex="1" parent="gm1jHRFKDk8UkBT7VS1y-16">
          <mxGeometry y="156" width="160" height="26" as="geometry" />
        </mxCell>
        <mxCell id="gm1jHRFKDk8UkBT7VS1y-24" value="- instructions : String" style="text;align=left;verticalAlign=top;spacingLeft=4;spacingRight=4;overflow=hidden;rotatable=0;points=[[0,0.5],[1,0.5]];portConstraint=eastwest;rounded=0;shadow=0;html=0;" vertex="1" parent="gm1jHRFKDk8UkBT7VS1y-16">
          <mxGeometry y="182" width="160" height="26" as="geometry" />
        </mxCell>
        <mxCell id="gm1jHRFKDk8UkBT7VS1y-25" value="- isValidate : Boolean" style="text;align=left;verticalAlign=top;spacingLeft=4;spacingRight=4;overflow=hidden;rotatable=0;points=[[0,0.5],[1,0.5]];portConstraint=eastwest;rounded=0;shadow=0;html=0;" vertex="1" parent="gm1jHRFKDk8UkBT7VS1y-16">
          <mxGeometry y="208" width="160" height="26" as="geometry" />
        </mxCell>
        <mxCell id="gm1jHRFKDk8UkBT7VS1y-21" value="" style="line;html=1;strokeWidth=1;align=left;verticalAlign=middle;spacingTop=-1;spacingLeft=3;spacingRight=3;rotatable=0;labelPosition=right;points=[];portConstraint=eastwest;" vertex="1" parent="gm1jHRFKDk8UkBT7VS1y-16">
          <mxGeometry y="234" width="160" height="8" as="geometry" />
        </mxCell>
        <mxCell id="gm1jHRFKDk8UkBT7VS1y-26" value="DataFromMySQL" style="swimlane;fontStyle=2;align=center;verticalAlign=top;childLayout=stackLayout;horizontal=1;startSize=26;horizontalStack=0;resizeParent=1;resizeLast=0;collapsible=1;marginBottom=0;rounded=0;shadow=0;strokeWidth=1;" vertex="1" parent="WIyWlLk6GJQsqaUBKTNV-1">
          <mxGeometry x="280" y="560" width="350" height="720" as="geometry">
            <mxRectangle x="230" y="140" width="160" height="26" as="alternateBounds" />
          </mxGeometry>
        </mxCell>
        <mxCell id="gm1jHRFKDk8UkBT7VS1y-27" value="- patients : ArrayList&lt;Patient&gt;" style="text;align=left;verticalAlign=top;spacingLeft=4;spacingRight=4;overflow=hidden;rotatable=0;points=[[0,0.5],[1,0.5]];portConstraint=eastwest;" vertex="1" parent="gm1jHRFKDk8UkBT7VS1y-26">
          <mxGeometry y="26" width="350" height="26" as="geometry" />
        </mxCell>
        <mxCell id="gm1jHRFKDk8UkBT7VS1y-28" value="- doctors: ArrayList&lt;Doctor&gt;" style="text;align=left;verticalAlign=top;spacingLeft=4;spacingRight=4;overflow=hidden;rotatable=0;points=[[0,0.5],[1,0.5]];portConstraint=eastwest;rounded=0;shadow=0;html=0;" vertex="1" parent="gm1jHRFKDk8UkBT7VS1y-26">
          <mxGeometry y="52" width="350" height="26" as="geometry" />
        </mxCell>
        <mxCell id="gm1jHRFKDk8UkBT7VS1y-29" value="- pharmacies: ArrayList&lt;Pharmacy&gt;" style="text;align=left;verticalAlign=top;spacingLeft=4;spacingRight=4;overflow=hidden;rotatable=0;points=[[0,0.5],[1,0.5]];portConstraint=eastwest;rounded=0;shadow=0;html=0;" vertex="1" parent="gm1jHRFKDk8UkBT7VS1y-26">
          <mxGeometry y="78" width="350" height="26" as="geometry" />
        </mxCell>
        <mxCell id="gm1jHRFKDk8UkBT7VS1y-30" value="- connexionSQL: String[]" style="text;align=left;verticalAlign=top;spacingLeft=4;spacingRight=4;overflow=hidden;rotatable=0;points=[[0,0.5],[1,0.5]];portConstraint=eastwest;rounded=0;shadow=0;html=0;" vertex="1" parent="gm1jHRFKDk8UkBT7VS1y-26">
          <mxGeometry y="104" width="350" height="26" as="geometry" />
        </mxCell>
        <mxCell id="gm1jHRFKDk8UkBT7VS1y-31" value="" style="line;html=1;strokeWidth=1;align=left;verticalAlign=middle;spacingTop=-1;spacingLeft=3;spacingRight=3;rotatable=0;labelPosition=right;points=[];portConstraint=eastwest;" vertex="1" parent="gm1jHRFKDk8UkBT7VS1y-26">
          <mxGeometry y="130" width="350" height="8" as="geometry" />
        </mxCell>
        <mxCell id="gm1jHRFKDk8UkBT7VS1y-32" value="+initData() : void" style="text;align=left;verticalAlign=top;spacingLeft=4;spacingRight=4;overflow=hidden;rotatable=0;points=[[0,0.5],[1,0.5]];portConstraint=eastwest;rounded=0;shadow=0;html=0;" vertex="1" parent="gm1jHRFKDk8UkBT7VS1y-26">
          <mxGeometry y="138" width="350" height="26" as="geometry" />
        </mxCell>
        <mxCell id="gm1jHRFKDk8UkBT7VS1y-33" value="+initPatients() : void" style="text;align=left;verticalAlign=top;spacingLeft=4;spacingRight=4;overflow=hidden;rotatable=0;points=[[0,0.5],[1,0.5]];portConstraint=eastwest;rounded=0;shadow=0;html=0;" vertex="1" parent="gm1jHRFKDk8UkBT7VS1y-26">
          <mxGeometry y="164" width="350" height="26" as="geometry" />
        </mxCell>
        <mxCell id="gm1jHRFKDk8UkBT7VS1y-34" value="+initDoctors() : void" style="text;align=left;verticalAlign=top;spacingLeft=4;spacingRight=4;overflow=hidden;rotatable=0;points=[[0,0.5],[1,0.5]];portConstraint=eastwest;rounded=0;shadow=0;html=0;" vertex="1" parent="gm1jHRFKDk8UkBT7VS1y-26">
          <mxGeometry y="190" width="350" height="26" as="geometry" />
        </mxCell>
        <mxCell id="gm1jHRFKDk8UkBT7VS1y-35" value="+initPharmacies() : void" style="text;align=left;verticalAlign=top;spacingLeft=4;spacingRight=4;overflow=hidden;rotatable=0;points=[[0,0.5],[1,0.5]];portConstraint=eastwest;rounded=0;shadow=0;html=0;" vertex="1" parent="gm1jHRFKDk8UkBT7VS1y-26">
          <mxGeometry y="216" width="350" height="26" as="geometry" />
        </mxCell>
        <mxCell id="gm1jHRFKDk8UkBT7VS1y-36" value="+initPrescriptions() : void" style="text;align=left;verticalAlign=top;spacingLeft=4;spacingRight=4;overflow=hidden;rotatable=0;points=[[0,0.5],[1,0.5]];portConstraint=eastwest;rounded=0;shadow=0;html=0;" vertex="1" parent="gm1jHRFKDk8UkBT7VS1y-26">
          <mxGeometry y="242" width="350" height="26" as="geometry" />
        </mxCell>
        <mxCell id="gm1jHRFKDk8UkBT7VS1y-37" value="+addPatientToDB() : void" style="text;align=left;verticalAlign=top;spacingLeft=4;spacingRight=4;overflow=hidden;rotatable=0;points=[[0,0.5],[1,0.5]];portConstraint=eastwest;rounded=0;shadow=0;html=0;" vertex="1" parent="gm1jHRFKDk8UkBT7VS1y-26">
          <mxGeometry y="268" width="350" height="26" as="geometry" />
        </mxCell>
        <mxCell id="gm1jHRFKDk8UkBT7VS1y-39" value="+addPharmacyToDB() : void" style="text;align=left;verticalAlign=top;spacingLeft=4;spacingRight=4;overflow=hidden;rotatable=0;points=[[0,0.5],[1,0.5]];portConstraint=eastwest;rounded=0;shadow=0;html=0;" vertex="1" parent="gm1jHRFKDk8UkBT7VS1y-26">
          <mxGeometry y="294" width="350" height="26" as="geometry" />
        </mxCell>
        <mxCell id="gm1jHRFKDk8UkBT7VS1y-38" value="+addDoctorToDB() : void" style="text;align=left;verticalAlign=top;spacingLeft=4;spacingRight=4;overflow=hidden;rotatable=0;points=[[0,0.5],[1,0.5]];portConstraint=eastwest;rounded=0;shadow=0;html=0;" vertex="1" parent="gm1jHRFKDk8UkBT7VS1y-26">
          <mxGeometry y="320" width="350" height="26" as="geometry" />
        </mxCell>
        <mxCell id="gm1jHRFKDk8UkBT7VS1y-40" value="+addPrescriptionToDB() : void" style="text;align=left;verticalAlign=top;spacingLeft=4;spacingRight=4;overflow=hidden;rotatable=0;points=[[0,0.5],[1,0.5]];portConstraint=eastwest;rounded=0;shadow=0;html=0;" vertex="1" parent="gm1jHRFKDk8UkBT7VS1y-26">
          <mxGeometry y="346" width="350" height="26" as="geometry" />
        </mxCell>
        <mxCell id="gm1jHRFKDk8UkBT7VS1y-41" value="+updatePatientInDB(Patient) : void" style="text;align=left;verticalAlign=top;spacingLeft=4;spacingRight=4;overflow=hidden;rotatable=0;points=[[0,0.5],[1,0.5]];portConstraint=eastwest;rounded=0;shadow=0;html=0;" vertex="1" parent="gm1jHRFKDk8UkBT7VS1y-26">
          <mxGeometry y="372" width="350" height="26" as="geometry" />
        </mxCell>
        <mxCell id="gm1jHRFKDk8UkBT7VS1y-42" value="+updatePharmacyInDB(Pharmacy) : void" style="text;align=left;verticalAlign=top;spacingLeft=4;spacingRight=4;overflow=hidden;rotatable=0;points=[[0,0.5],[1,0.5]];portConstraint=eastwest;rounded=0;shadow=0;html=0;" vertex="1" parent="gm1jHRFKDk8UkBT7VS1y-26">
          <mxGeometry y="398" width="350" height="26" as="geometry" />
        </mxCell>
        <mxCell id="gm1jHRFKDk8UkBT7VS1y-43" value="+updateDoctorInDB(Doctor) : void" style="text;align=left;verticalAlign=top;spacingLeft=4;spacingRight=4;overflow=hidden;rotatable=0;points=[[0,0.5],[1,0.5]];portConstraint=eastwest;rounded=0;shadow=0;html=0;" vertex="1" parent="gm1jHRFKDk8UkBT7VS1y-26">
          <mxGeometry y="424" width="350" height="26" as="geometry" />
        </mxCell>
        <mxCell id="gm1jHRFKDk8UkBT7VS1y-44" value="+updatePrescriptionInDB(Prescription) : void" style="text;align=left;verticalAlign=top;spacingLeft=4;spacingRight=4;overflow=hidden;rotatable=0;points=[[0,0.5],[1,0.5]];portConstraint=eastwest;rounded=0;shadow=0;html=0;" vertex="1" parent="gm1jHRFKDk8UkBT7VS1y-26">
          <mxGeometry y="450" width="350" height="26" as="geometry" />
        </mxCell>
        <mxCell id="gm1jHRFKDk8UkBT7VS1y-46" value="+PrescriptionNotSentFromPatient() : ArrayList&lt;Prescription&gt;" style="text;align=left;verticalAlign=top;spacingLeft=4;spacingRight=4;overflow=hidden;rotatable=0;points=[[0,0.5],[1,0.5]];portConstraint=eastwest;rounded=0;shadow=0;html=0;" vertex="1" parent="gm1jHRFKDk8UkBT7VS1y-26">
          <mxGeometry y="476" width="350" height="26" as="geometry" />
        </mxCell>
        <mxCell id="gm1jHRFKDk8UkBT7VS1y-47" value="+PrescriptionSentFromPatient() : ArrayList&lt;Prescription&gt;" style="text;align=left;verticalAlign=top;spacingLeft=4;spacingRight=4;overflow=hidden;rotatable=0;points=[[0,0.5],[1,0.5]];portConstraint=eastwest;rounded=0;shadow=0;html=0;" vertex="1" parent="gm1jHRFKDk8UkBT7VS1y-26">
          <mxGeometry y="502" width="350" height="26" as="geometry" />
        </mxCell>
        <mxCell id="gm1jHRFKDk8UkBT7VS1y-48" value="+PrescriptionReturnedToPatient() : ArrayList&lt;Prescription&gt;" style="text;align=left;verticalAlign=top;spacingLeft=4;spacingRight=4;overflow=hidden;rotatable=0;points=[[0,0.5],[1,0.5]];portConstraint=eastwest;rounded=0;shadow=0;html=0;" vertex="1" parent="gm1jHRFKDk8UkBT7VS1y-26">
          <mxGeometry y="528" width="350" height="26" as="geometry" />
        </mxCell>
        <mxCell id="gm1jHRFKDk8UkBT7VS1y-50" value="+PrescriptionValidated() : ArrayList&lt;Prescription&gt;" style="text;align=left;verticalAlign=top;spacingLeft=4;spacingRight=4;overflow=hidden;rotatable=0;points=[[0,0.5],[1,0.5]];portConstraint=eastwest;rounded=0;shadow=0;html=0;" vertex="1" parent="gm1jHRFKDk8UkBT7VS1y-26">
          <mxGeometry y="554" width="350" height="26" as="geometry" />
        </mxCell>
        <mxCell id="gm1jHRFKDk8UkBT7VS1y-49" value="+PrescriptionNotValidated() : ArrayList&lt;Prescription&gt;" style="text;align=left;verticalAlign=top;spacingLeft=4;spacingRight=4;overflow=hidden;rotatable=0;points=[[0,0.5],[1,0.5]];portConstraint=eastwest;rounded=0;shadow=0;html=0;" vertex="1" parent="gm1jHRFKDk8UkBT7VS1y-26">
          <mxGeometry y="580" width="350" height="26" as="geometry" />
        </mxCell>
        <mxCell id="gm1jHRFKDk8UkBT7VS1y-51" value="+PrescriptionNotValidated() : ArrayList&lt;Prescription&gt;" style="text;align=left;verticalAlign=top;spacingLeft=4;spacingRight=4;overflow=hidden;rotatable=0;points=[[0,0.5],[1,0.5]];portConstraint=eastwest;rounded=0;shadow=0;html=0;" vertex="1" parent="gm1jHRFKDk8UkBT7VS1y-26">
          <mxGeometry y="606" width="350" height="26" as="geometry" />
        </mxCell>
        <mxCell id="gm1jHRFKDk8UkBT7VS1y-52" value="+isExistingPatient(String) : Patient" style="text;align=left;verticalAlign=top;spacingLeft=4;spacingRight=4;overflow=hidden;rotatable=0;points=[[0,0.5],[1,0.5]];portConstraint=eastwest;rounded=0;shadow=0;html=0;" vertex="1" parent="gm1jHRFKDk8UkBT7VS1y-26">
          <mxGeometry y="632" width="350" height="26" as="geometry" />
        </mxCell>
        <mxCell id="gm1jHRFKDk8UkBT7VS1y-53" value="+isExistingDoctor(String) : Doctor" style="text;align=left;verticalAlign=top;spacingLeft=4;spacingRight=4;overflow=hidden;rotatable=0;points=[[0,0.5],[1,0.5]];portConstraint=eastwest;rounded=0;shadow=0;html=0;" vertex="1" parent="gm1jHRFKDk8UkBT7VS1y-26">
          <mxGeometry y="658" width="350" height="26" as="geometry" />
        </mxCell>
        <mxCell id="gm1jHRFKDk8UkBT7VS1y-54" value="+isExistingPharmacy(String) : Pharmacy" style="text;align=left;verticalAlign=top;spacingLeft=4;spacingRight=4;overflow=hidden;rotatable=0;points=[[0,0.5],[1,0.5]];portConstraint=eastwest;rounded=0;shadow=0;html=0;" vertex="1" parent="gm1jHRFKDk8UkBT7VS1y-26">
          <mxGeometry y="684" width="350" height="26" as="geometry" />
        </mxCell>
        <mxCell id="gm1jHRFKDk8UkBT7VS1y-57" value="Extends" style="endArrow=block;endSize=16;endFill=0;html=1;rounded=0;entryX=0.5;entryY=1;entryDx=0;entryDy=0;" edge="1" parent="WIyWlLk6GJQsqaUBKTNV-1" target="zkfFHV4jXpPFQw0GAbJ--0">
          <mxGeometry width="160" relative="1" as="geometry">
            <mxPoint x="280" y="280" as="sourcePoint" />
            <mxPoint x="290" y="570" as="targetPoint" />
          </mxGeometry>
        </mxCell>
        <mxCell id="gm1jHRFKDk8UkBT7VS1y-59" value="" style="endArrow=none;html=1;rounded=0;exitX=0.5;exitY=0;exitDx=0;exitDy=0;" edge="1" parent="WIyWlLk6GJQsqaUBKTNV-1" source="gm1jHRFKDk8UkBT7VS1y-0">
          <mxGeometry width="50" height="50" relative="1" as="geometry">
            <mxPoint x="159.9999999999999" y="290" as="sourcePoint" />
            <mxPoint x="280" y="290" as="targetPoint" />
            <Array as="points">
              <mxPoint x="80" y="290" />
            </Array>
          </mxGeometry>
        </mxCell>
        <mxCell id="gm1jHRFKDk8UkBT7VS1y-60" value="" style="endArrow=none;html=1;rounded=0;exitX=0.5;exitY=0;exitDx=0;exitDy=0;" edge="1" parent="WIyWlLk6GJQsqaUBKTNV-1" source="gm1jHRFKDk8UkBT7VS1y-7">
          <mxGeometry width="50" height="50" relative="1" as="geometry">
            <mxPoint x="260" y="360" as="sourcePoint" />
            <mxPoint x="280" y="280" as="targetPoint" />
          </mxGeometry>
        </mxCell>
        <mxCell id="gm1jHRFKDk8UkBT7VS1y-61" value="" style="endArrow=none;html=1;rounded=0;entryX=0.5;entryY=0;entryDx=0;entryDy=0;" edge="1" parent="WIyWlLk6GJQsqaUBKTNV-1" target="gm1jHRFKDk8UkBT7VS1y-12">
          <mxGeometry width="50" height="50" relative="1" as="geometry">
            <mxPoint x="280" y="290" as="sourcePoint" />
            <mxPoint x="520" y="290" as="targetPoint" />
            <Array as="points">
              <mxPoint x="520" y="290" />
            </Array>
          </mxGeometry>
        </mxCell>
        <mxCell id="gm1jHRFKDk8UkBT7VS1y-62" value="DrFrame" style="swimlane;fontStyle=2;align=center;verticalAlign=top;childLayout=stackLayout;horizontal=1;startSize=26;horizontalStack=0;resizeParent=1;resizeLast=0;collapsible=1;marginBottom=0;rounded=0;shadow=0;strokeWidth=1;" vertex="1" parent="WIyWlLk6GJQsqaUBKTNV-1">
          <mxGeometry y="1320" width="160" height="50" as="geometry">
            <mxRectangle x="230" y="140" width="160" height="26" as="alternateBounds" />
          </mxGeometry>
        </mxCell>
        <mxCell id="gm1jHRFKDk8UkBT7VS1y-65" value="" style="line;html=1;strokeWidth=1;align=left;verticalAlign=middle;spacingTop=-1;spacingLeft=3;spacingRight=3;rotatable=0;labelPosition=right;points=[];portConstraint=eastwest;" vertex="1" parent="gm1jHRFKDk8UkBT7VS1y-62">
          <mxGeometry y="26" width="160" height="8" as="geometry" />
        </mxCell>
        <mxCell id="gm1jHRFKDk8UkBT7VS1y-70" value="PatientFrame" style="swimlane;fontStyle=2;align=center;verticalAlign=top;childLayout=stackLayout;horizontal=1;startSize=26;horizontalStack=0;resizeParent=1;resizeLast=0;collapsible=1;marginBottom=0;rounded=0;shadow=0;strokeWidth=1;" vertex="1" parent="WIyWlLk6GJQsqaUBKTNV-1">
          <mxGeometry y="1400" width="160" height="50" as="geometry">
            <mxRectangle x="230" y="140" width="160" height="26" as="alternateBounds" />
          </mxGeometry>
        </mxCell>
        <mxCell id="gm1jHRFKDk8UkBT7VS1y-71" value="" style="line;html=1;strokeWidth=1;align=left;verticalAlign=middle;spacingTop=-1;spacingLeft=3;spacingRight=3;rotatable=0;labelPosition=right;points=[];portConstraint=eastwest;" vertex="1" parent="gm1jHRFKDk8UkBT7VS1y-70">
          <mxGeometry y="26" width="160" height="8" as="geometry" />
        </mxCell>
        <mxCell id="gm1jHRFKDk8UkBT7VS1y-72" value="PharmaFrame" style="swimlane;fontStyle=2;align=center;verticalAlign=top;childLayout=stackLayout;horizontal=1;startSize=26;horizontalStack=0;resizeParent=1;resizeLast=0;collapsible=1;marginBottom=0;rounded=0;shadow=0;strokeWidth=1;" vertex="1" parent="WIyWlLk6GJQsqaUBKTNV-1">
          <mxGeometry y="1480" width="160" height="50" as="geometry">
            <mxRectangle x="230" y="140" width="160" height="26" as="alternateBounds" />
          </mxGeometry>
        </mxCell>
        <mxCell id="gm1jHRFKDk8UkBT7VS1y-73" value="" style="line;html=1;strokeWidth=1;align=left;verticalAlign=middle;spacingTop=-1;spacingLeft=3;spacingRight=3;rotatable=0;labelPosition=right;points=[];portConstraint=eastwest;" vertex="1" parent="gm1jHRFKDk8UkBT7VS1y-72">
          <mxGeometry y="26" width="160" height="8" as="geometry" />
        </mxCell>
      </root>
    </mxGraphModel>
  </diagram>
</mxfile>
